<?xml version="1.0" encoding="UTF-8" standalone="no"?>
<!DOCTYPE svg PUBLIC "-//W3C//DTD SVG 1.1//EN"
 "http://www.w3.org/Graphics/SVG/1.1/DTD/svg11.dtd">
<!-- Generated by graphviz version 2.40.1 (20161225.0304)
 -->
<!-- Title: dependencies Pages: 1 -->
<svg width="980pt" height="284pt"
 viewBox="0.00 0.00 980.00 284.00" xmlns="http://www.w3.org/2000/svg" xmlns:xlink="http://www.w3.org/1999/xlink">
<g id="graph0" class="graph" transform="scale(1 1) rotate(0) translate(4 280)">
<title>dependencies</title>
<polygon fill="#ffffff" stroke="transparent" points="-4,4 -4,-280 976,-280 976,4 -4,4"/>
<text text-anchor="start" x="465.0091" y="-42.4" font-family="sans-serif" font-weight="bold" font-size="14.00" fill="#000000">Legend</text>
<polygon fill="#ffffb3" stroke="transparent" points="252,-10 252,-30 272,-30 272,-10 252,-10"/>
<text text-anchor="start" x="275.629" y="-15.4" font-family="sans-serif" font-size="14.00" fill="#000000"> &#160;Declarations</text>
<polygon fill="#8dd3c7" stroke="transparent" points="365,-10 365,-30 385,-30 385,-10 365,-10"/>
<text text-anchor="start" x="388.7251" y="-15.4" font-family="sans-serif" font-size="14.00" fill="#000000"> &#160;Module</text>
<polygon fill="#80b1d3" stroke="transparent" points="451,-10 451,-30 471,-30 471,-10 451,-10"/>
<text text-anchor="start" x="474.7812" y="-15.4" font-family="sans-serif" font-size="14.00" fill="#000000"> &#160;Bootstrap</text>
<polygon fill="#fdb462" stroke="transparent" points="548,-10 548,-30 568,-30 568,-10 548,-10"/>
<text text-anchor="start" x="571.6732" y="-15.4" font-family="sans-serif" font-size="14.00" fill="#000000"> &#160;Providers</text>
<polygon fill="#fb8072" stroke="transparent" points="644,-10 644,-30 664,-30 664,-10 644,-10"/>
<text text-anchor="start" x="667.7258" y="-15.4" font-family="sans-serif" font-size="14.00" fill="#000000"> &#160;Exports</text>
<g id="clust1" class="cluster">
<title>cluster_NgxMaterialPagesModule</title>
<polygon fill="none" stroke="#000000" stroke-dasharray="1,5" points="8,-70 8,-268 964,-268 964,-70 8,-70"/>
</g>
<g id="clust2" class="cluster">
<title>cluster_NgxMaterialPagesModule_declarations</title>
<polygon fill="none" stroke="#000000" points="24,-78 24,-130 950,-130 950,-78 24,-78"/>
</g>
<g id="clust8" class="cluster">
<title>cluster_NgxMaterialPagesModule_exports</title>
<polygon fill="none" stroke="#000000" points="16,-208 16,-260 956,-260 956,-208 16,-208"/>
</g>
<!-- NgxMaterialPagesComponent -->
<g id="node1" class="node">
<title>NgxMaterialPagesComponent</title>
<polygon fill="#ffffb3" stroke="#000000" points="941.5168,-122 756.4832,-122 756.4832,-86 941.5168,-86 941.5168,-122"/>
<text text-anchor="middle" x="849" y="-99.8" font-family="Times,serif" font-size="14.00" fill="#000000">NgxMaterialPagesComponent</text>
</g>
<!-- NgxMaterialPagesModule -->
<g id="node5" class="node">
<title>NgxMaterialPagesModule</title>
<polygon fill="#8dd3c7" stroke="#000000" points="471.7338,-187 468.7338,-191 447.7338,-191 444.7338,-187 308.2662,-187 308.2662,-151 471.7338,-151 471.7338,-187"/>
<text text-anchor="middle" x="390" y="-164.8" font-family="Times,serif" font-size="14.00" fill="#000000">NgxMaterialPagesModule</text>
</g>
<!-- NgxMaterialPagesComponent&#45;&gt;NgxMaterialPagesModule -->
<g id="edge1" class="edge">
<title>NgxMaterialPagesComponent&#45;&gt;NgxMaterialPagesModule</title>
<path fill="none" stroke="#000000" d="M880.6694,-122.2667C880.6694,-140.5552 880.6694,-166 880.6694,-166 880.6694,-166 481.8508,-166 481.8508,-166"/>
<polygon fill="#000000" stroke="#000000" points="481.8508,-162.5001 471.8508,-166 481.8507,-169.5001 481.8508,-162.5001"/>
</g>
<!-- NgxMaterialPageLoaderComponent -->
<g id="node2" class="node">
<title>NgxMaterialPageLoaderComponent</title>
<polygon fill="#ffffb3" stroke="#000000" points="737.7142,-122 518.2858,-122 518.2858,-86 737.7142,-86 737.7142,-122"/>
<text text-anchor="middle" x="628" y="-99.8" font-family="Times,serif" font-size="14.00" fill="#000000">NgxMaterialPageLoaderComponent</text>
</g>
<!-- NgxMaterialPageLoaderComponent&#45;&gt;NgxMaterialPagesModule -->
<g id="edge2" class="edge">
<title>NgxMaterialPageLoaderComponent&#45;&gt;NgxMaterialPagesModule</title>
<path fill="none" stroke="#000000" d="M664.619,-122.0091C664.619,-138.0494 664.619,-159 664.619,-159 664.619,-159 482.0228,-159 482.0228,-159"/>
<polygon fill="#000000" stroke="#000000" points="482.0228,-155.5001 472.0228,-159 482.0227,-162.5001 482.0228,-155.5001"/>
</g>
<!-- NgxMaterialPageOutlookComponent -->
<g id="node3" class="node">
<title>NgxMaterialPageOutlookComponent</title>
<polygon fill="#ffffb3" stroke="#000000" points="499.9594,-122 274.0406,-122 274.0406,-86 499.9594,-86 499.9594,-122"/>
<text text-anchor="middle" x="387" y="-99.8" font-family="Times,serif" font-size="14.00" fill="#000000">NgxMaterialPageOutlookComponent</text>
</g>
<!-- NgxMaterialPageOutlookComponent&#45;&gt;NgxMaterialPagesModule -->
<g id="edge3" class="edge">
<title>NgxMaterialPageOutlookComponent&#45;&gt;NgxMaterialPagesModule</title>
<path fill="none" stroke="#000000" d="M390,-122.1061C390,-122.1061 390,-140.991 390,-140.991"/>
<polygon fill="#000000" stroke="#000000" points="386.5001,-140.9909 390,-150.991 393.5001,-140.991 386.5001,-140.9909"/>
</g>
<!-- NgxMaterialPageContentComponent -->
<g id="node4" class="node">
<title>NgxMaterialPageContentComponent</title>
<polygon fill="#ffffb3" stroke="#000000" points="256.4044,-122 31.5956,-122 31.5956,-86 256.4044,-86 256.4044,-122"/>
<text text-anchor="middle" x="144" y="-99.8" font-family="Times,serif" font-size="14.00" fill="#000000">NgxMaterialPageContentComponent</text>
</g>
<!-- NgxMaterialPageContentComponent&#45;&gt;NgxMaterialPagesModule -->
<g id="edge4" class="edge">
<title>NgxMaterialPageContentComponent&#45;&gt;NgxMaterialPagesModule</title>
<path fill="none" stroke="#000000" d="M178.5673,-122.0225C178.5673,-139.3734 178.5673,-163 178.5673,-163 178.5673,-163 298.2546,-163 298.2546,-163"/>
<polygon fill="#000000" stroke="#000000" points="298.2546,-166.5001 308.2546,-163 298.2546,-159.5001 298.2546,-166.5001"/>
</g>
<!-- NgxMaterialPagesComponent  -->
<g id="node6" class="node">
<title>NgxMaterialPagesComponent </title>
<polygon fill="#fb8072" stroke="#000000" points="947.5162,-252 758.4838,-252 758.4838,-216 947.5162,-216 947.5162,-252"/>
<text text-anchor="middle" x="853" y="-229.8" font-family="Times,serif" font-size="14.00" fill="#000000">NgxMaterialPagesComponent </text>
</g>
<!-- NgxMaterialPagesModule&#45;&gt;NgxMaterialPagesComponent  -->
<g id="edge5" class="edge">
<title>NgxMaterialPagesModule&#45;&gt;NgxMaterialPagesComponent </title>
<path fill="none" stroke="#000000" stroke-dasharray="5,2" d="M471.812,-173C596.4509,-173 819.5806,-173 819.5806,-173 819.5806,-173 819.5806,-205.698 819.5806,-205.698"/>
<polygon fill="#000000" stroke="#000000" points="816.0807,-205.698 819.5806,-215.698 823.0807,-205.698 816.0807,-205.698"/>
</g>
<!-- NgxMaterialPageLoaderComponent  -->
<g id="node7" class="node">
<title>NgxMaterialPageLoaderComponent </title>
<polygon fill="#fb8072" stroke="#000000" points="740.7141,-252 517.2859,-252 517.2859,-216 740.7141,-216 740.7141,-252"/>
<text text-anchor="middle" x="629" y="-229.8" font-family="Times,serif" font-size="14.00" fill="#000000">NgxMaterialPageLoaderComponent </text>
</g>
<!-- NgxMaterialPagesModule&#45;&gt;NgxMaterialPageLoaderComponent  -->
<g id="edge6" class="edge">
<title>NgxMaterialPagesModule&#45;&gt;NgxMaterialPageLoaderComponent </title>
<path fill="none" stroke="#000000" stroke-dasharray="5,2" d="M471.9094,-180C527.6628,-180 591.381,-180 591.381,-180 591.381,-180 591.381,-205.7181 591.381,-205.7181"/>
<polygon fill="#000000" stroke="#000000" points="587.8811,-205.718 591.381,-215.7181 594.8811,-205.7181 587.8811,-205.718"/>
</g>
<!-- NgxMaterialPageOutlookComponent  -->
<g id="node8" class="node">
<title>NgxMaterialPageOutlookComponent </title>
<polygon fill="#fb8072" stroke="#000000" points="499.9599,-252 270.0401,-252 270.0401,-216 499.9599,-216 499.9599,-252"/>
<text text-anchor="middle" x="385" y="-229.8" font-family="Times,serif" font-size="14.00" fill="#000000">NgxMaterialPageOutlookComponent </text>
</g>
<!-- NgxMaterialPagesModule&#45;&gt;NgxMaterialPageOutlookComponent  -->
<g id="edge7" class="edge">
<title>NgxMaterialPagesModule&#45;&gt;NgxMaterialPageOutlookComponent </title>
<path fill="none" stroke="#000000" stroke-dasharray="5,2" d="M390,-187.1061C390,-187.1061 390,-205.991 390,-205.991"/>
<polygon fill="#000000" stroke="#000000" points="386.5001,-205.9909 390,-215.991 393.5001,-205.991 386.5001,-205.9909"/>
</g>
<!-- NgxMaterialPageContentComponent  -->
<g id="node9" class="node">
<title>NgxMaterialPageContentComponent </title>
<polygon fill="#fb8072" stroke="#000000" points="251.904,-252 24.096,-252 24.096,-216 251.904,-216 251.904,-252"/>
<text text-anchor="middle" x="138" y="-229.8" font-family="Times,serif" font-size="14.00" fill="#000000">NgxMaterialPageContentComponent </text>
</g>
<!-- NgxMaterialPagesModule&#45;&gt;NgxMaterialPageContentComponent  -->
<g id="edge8" class="edge">
<title>NgxMaterialPagesModule&#45;&gt;NgxMaterialPageContentComponent </title>
<path fill="none" stroke="#000000" stroke-dasharray="5,2" d="M308.0011,-175C223.8604,-175 105.1827,-175 105.1827,-175 105.1827,-175 105.1827,-205.9775 105.1827,-205.9775"/>
<polygon fill="#000000" stroke="#000000" points="101.6828,-205.9774 105.1827,-215.9775 108.6828,-205.9775 101.6828,-205.9774"/>
</g>
</g>
</svg>
