<?xml version="1.0" encoding="UTF-8" standalone="no"?>
<!DOCTYPE svg PUBLIC "-//W3C//DTD SVG 1.1//EN"
 "http://www.w3.org/Graphics/SVG/1.1/DTD/svg11.dtd">
<!-- Generated by graphviz version 2.40.1 (20161225.0304)
 -->
<!-- Title: dependencies Pages: 1 -->
<svg width="783pt" height="284pt"
 viewBox="0.00 0.00 783.00 284.00" xmlns="http://www.w3.org/2000/svg" xmlns:xlink="http://www.w3.org/1999/xlink">
<g id="graph0" class="graph" transform="scale(1 1) rotate(0) translate(4 280)">
<title>dependencies</title>
<polygon fill="#ffffff" stroke="transparent" points="-4,4 -4,-280 779,-280 779,4 -4,4"/>
<text text-anchor="start" x="366.5091" y="-42.4" font-family="sans-serif" font-weight="bold" font-size="14.00" fill="#000000">Legend</text>
<polygon fill="#ffffb3" stroke="transparent" points="153.5,-10 153.5,-30 173.5,-30 173.5,-10 153.5,-10"/>
<text text-anchor="start" x="177.129" y="-15.4" font-family="sans-serif" font-size="14.00" fill="#000000"> &#160;Declarations</text>
<polygon fill="#8dd3c7" stroke="transparent" points="266.5,-10 266.5,-30 286.5,-30 286.5,-10 266.5,-10"/>
<text text-anchor="start" x="290.2251" y="-15.4" font-family="sans-serif" font-size="14.00" fill="#000000"> &#160;Module</text>
<polygon fill="#80b1d3" stroke="transparent" points="352.5,-10 352.5,-30 372.5,-30 372.5,-10 352.5,-10"/>
<text text-anchor="start" x="376.2812" y="-15.4" font-family="sans-serif" font-size="14.00" fill="#000000"> &#160;Bootstrap</text>
<polygon fill="#fdb462" stroke="transparent" points="449.5,-10 449.5,-30 469.5,-30 469.5,-10 449.5,-10"/>
<text text-anchor="start" x="473.1732" y="-15.4" font-family="sans-serif" font-size="14.00" fill="#000000"> &#160;Providers</text>
<polygon fill="#fb8072" stroke="transparent" points="545.5,-10 545.5,-30 565.5,-30 565.5,-10 545.5,-10"/>
<text text-anchor="start" x="569.2258" y="-15.4" font-family="sans-serif" font-size="14.00" fill="#000000"> &#160;Exports</text>
<g id="clust1" class="cluster">
<title>cluster_MatPagesModule</title>
<polygon fill="none" stroke="#000000" stroke-dasharray="1,5" points="8,-70 8,-268 767,-268 767,-70 8,-70"/>
</g>
<g id="clust2" class="cluster">
<title>cluster_MatPagesModule_declarations</title>
<polygon fill="none" stroke="#000000" points="24,-78 24,-130 754,-130 754,-78 24,-78"/>
</g>
<g id="clust8" class="cluster">
<title>cluster_MatPagesModule_exports</title>
<polygon fill="none" stroke="#000000" points="16,-208 16,-260 759,-260 759,-208 16,-208"/>
</g>
<!-- MatPagesComponent -->
<g id="node1" class="node">
<title>MatPagesComponent</title>
<polygon fill="#ffffb3" stroke="#000000" points="746.0394,-122 609.9606,-122 609.9606,-86 746.0394,-86 746.0394,-122"/>
<text text-anchor="middle" x="678" y="-99.8" font-family="Times,serif" font-size="14.00" fill="#000000">MatPagesComponent</text>
</g>
<!-- MatPagesModule -->
<g id="node5" class="node">
<title>MatPagesModule</title>
<polygon fill="#8dd3c7" stroke="#000000" points="373.2563,-187 370.2563,-191 349.2563,-191 346.2563,-187 258.7437,-187 258.7437,-151 373.2563,-151 373.2563,-187"/>
<text text-anchor="middle" x="316" y="-164.8" font-family="Times,serif" font-size="14.00" fill="#000000">MatPagesModule</text>
</g>
<!-- MatPagesComponent&#45;&gt;MatPagesModule -->
<g id="edge1" class="edge">
<title>MatPagesComponent&#45;&gt;MatPagesModule</title>
<path fill="none" stroke="#000000" d="M701.1731,-122.2667C701.1731,-140.5552 701.1731,-166 701.1731,-166 701.1731,-166 383.6643,-166 383.6643,-166"/>
<polygon fill="#000000" stroke="#000000" points="383.6643,-162.5001 373.6643,-166 383.6643,-169.5001 383.6643,-162.5001"/>
</g>
<!-- MatPageLoaderComponent -->
<g id="node2" class="node">
<title>MatPageLoaderComponent</title>
<polygon fill="#ffffb3" stroke="#000000" points="591.2366,-122 420.7634,-122 420.7634,-86 591.2366,-86 591.2366,-122"/>
<text text-anchor="middle" x="506" y="-99.8" font-family="Times,serif" font-size="14.00" fill="#000000">MatPageLoaderComponent</text>
</g>
<!-- MatPageLoaderComponent&#45;&gt;MatPagesModule -->
<g id="edge2" class="edge">
<title>MatPageLoaderComponent&#45;&gt;MatPagesModule</title>
<path fill="none" stroke="#000000" d="M534.4561,-122.0091C534.4561,-138.0494 534.4561,-159 534.4561,-159 534.4561,-159 383.3968,-159 383.3968,-159"/>
<polygon fill="#000000" stroke="#000000" points="383.3968,-155.5001 373.3968,-159 383.3967,-162.5001 383.3968,-155.5001"/>
</g>
<!-- MatPageOutlookComponent -->
<g id="node3" class="node">
<title>MatPageOutlookComponent</title>
<polygon fill="#ffffb3" stroke="#000000" points="402.4818,-122 225.5182,-122 225.5182,-86 402.4818,-86 402.4818,-122"/>
<text text-anchor="middle" x="314" y="-99.8" font-family="Times,serif" font-size="14.00" fill="#000000">MatPageOutlookComponent</text>
</g>
<!-- MatPageOutlookComponent&#45;&gt;MatPagesModule -->
<g id="edge3" class="edge">
<title>MatPageOutlookComponent&#45;&gt;MatPagesModule</title>
<path fill="none" stroke="#000000" d="M316,-122.1061C316,-122.1061 316,-140.991 316,-140.991"/>
<polygon fill="#000000" stroke="#000000" points="312.5001,-140.9909 316,-150.991 319.5001,-140.991 312.5001,-140.9909"/>
</g>
<!-- MatPageContentComponent -->
<g id="node4" class="node">
<title>MatPageContentComponent</title>
<polygon fill="#ffffb3" stroke="#000000" points="207.9269,-122 32.0731,-122 32.0731,-86 207.9269,-86 207.9269,-122"/>
<text text-anchor="middle" x="120" y="-99.8" font-family="Times,serif" font-size="14.00" fill="#000000">MatPageContentComponent</text>
</g>
<!-- MatPageContentComponent&#45;&gt;MatPagesModule -->
<g id="edge4" class="edge">
<title>MatPageContentComponent&#45;&gt;MatPagesModule</title>
<path fill="none" stroke="#000000" d="M145.7377,-122.0225C145.7377,-139.3734 145.7377,-163 145.7377,-163 145.7377,-163 248.357,-163 248.357,-163"/>
<polygon fill="#000000" stroke="#000000" points="248.357,-166.5001 258.357,-163 248.3569,-159.5001 248.357,-166.5001"/>
</g>
<!-- MatPagesComponent  -->
<g id="node6" class="node">
<title>MatPagesComponent </title>
<polygon fill="#fb8072" stroke="#000000" points="751.0386,-252 610.9614,-252 610.9614,-216 751.0386,-216 751.0386,-252"/>
<text text-anchor="middle" x="681" y="-229.8" font-family="Times,serif" font-size="14.00" fill="#000000">MatPagesComponent </text>
</g>
<!-- MatPagesModule&#45;&gt;MatPagesComponent  -->
<g id="edge5" class="edge">
<title>MatPagesModule&#45;&gt;MatPagesComponent </title>
<path fill="none" stroke="#000000" stroke-dasharray="5,2" d="M373.3049,-173C470.2242,-173 656.0769,-173 656.0769,-173 656.0769,-173 656.0769,-205.698 656.0769,-205.698"/>
<polygon fill="#000000" stroke="#000000" points="652.577,-205.698 656.0769,-215.698 659.577,-205.698 652.577,-205.698"/>
</g>
<!-- MatPageLoaderComponent  -->
<g id="node7" class="node">
<title>MatPageLoaderComponent </title>
<polygon fill="#fb8072" stroke="#000000" points="593.2366,-252 418.7634,-252 418.7634,-216 593.2366,-216 593.2366,-252"/>
<text text-anchor="middle" x="506" y="-229.8" font-family="Times,serif" font-size="14.00" fill="#000000">MatPageLoaderComponent </text>
</g>
<!-- MatPagesModule&#45;&gt;MatPageLoaderComponent  -->
<g id="edge6" class="edge">
<title>MatPagesModule&#45;&gt;MatPageLoaderComponent </title>
<path fill="none" stroke="#000000" stroke-dasharray="5,2" d="M373.4092,-180C419.8416,-180 477.5439,-180 477.5439,-180 477.5439,-180 477.5439,-205.7181 477.5439,-205.7181"/>
<polygon fill="#000000" stroke="#000000" points="474.044,-205.718 477.5439,-215.7181 481.044,-205.7181 474.044,-205.718"/>
</g>
<!-- MatPageOutlookComponent  -->
<g id="node8" class="node">
<title>MatPageOutlookComponent </title>
<polygon fill="#fb8072" stroke="#000000" points="401.4824,-252 220.5176,-252 220.5176,-216 401.4824,-216 401.4824,-252"/>
<text text-anchor="middle" x="311" y="-229.8" font-family="Times,serif" font-size="14.00" fill="#000000">MatPageOutlookComponent </text>
</g>
<!-- MatPagesModule&#45;&gt;MatPageOutlookComponent  -->
<g id="edge7" class="edge">
<title>MatPagesModule&#45;&gt;MatPageOutlookComponent </title>
<path fill="none" stroke="#000000" stroke-dasharray="5,2" d="M316,-187.1061C316,-187.1061 316,-205.991 316,-205.991"/>
<polygon fill="#000000" stroke="#000000" points="312.5001,-205.9909 316,-215.991 319.5001,-205.991 312.5001,-205.9909"/>
</g>
<!-- MatPageContentComponent  -->
<g id="node9" class="node">
<title>MatPageContentComponent </title>
<polygon fill="#fb8072" stroke="#000000" points="202.4264,-252 23.5736,-252 23.5736,-216 202.4264,-216 202.4264,-252"/>
<text text-anchor="middle" x="113" y="-229.8" font-family="Times,serif" font-size="14.00" fill="#000000">MatPageContentComponent </text>
</g>
<!-- MatPagesModule&#45;&gt;MatPageContentComponent  -->
<g id="edge8" class="edge">
<title>MatPagesModule&#45;&gt;MatPageContentComponent </title>
<path fill="none" stroke="#000000" stroke-dasharray="5,2" d="M258.7214,-175C191.4782,-175 89.0123,-175 89.0123,-175 89.0123,-175 89.0123,-205.9775 89.0123,-205.9775"/>
<polygon fill="#000000" stroke="#000000" points="85.5124,-205.9774 89.0123,-215.9775 92.5124,-205.9775 85.5124,-205.9774"/>
</g>
</g>
</svg>
